<svg width="19" height="18" viewBox="0 0 19 18" fill="none" xmlns="http://www.w3.org/2000/svg">
<path fill-rule="evenodd" clip-rule="evenodd" d="M17.945 9.1882C17.945 8.60004 17.8922 8.03402 17.7942 7.49121H9.97998V10.7006H14.4452C14.2529 11.7377 13.6682 12.6163 12.7897 13.2048V15.2864H15.471C17.0401 13.8418 17.945 11.7149 17.945 9.1882Z" fill="#4285F4"/>
<path fill-rule="evenodd" clip-rule="evenodd" d="M9.98 17.2966C12.2202 17.2966 14.0982 16.5538 15.4711 15.2864L12.7897 13.2048C12.0468 13.7026 11.0962 13.9969 9.98 13.9969C7.81895 13.9969 5.99012 12.5375 5.33762 10.5762H2.56555V12.726C3.93067 15.4376 6.73649 17.2966 9.98 17.2966Z" fill="#34A853"/>
<path fill-rule="evenodd" clip-rule="evenodd" d="M5.3376 10.5765C5.17166 10.0787 5.07744 9.54682 5.07744 9.00014C5.07744 8.45346 5.17166 7.92154 5.3376 7.42373V5.27393H2.56553C2.00373 6.394 1.68311 7.66139 1.68311 9.00014C1.68311 10.3389 2.00373 11.6063 2.56553 12.7263L5.3376 10.5765Z" fill="#FBBC05"/>
<path fill-rule="evenodd" clip-rule="evenodd" d="M9.98 4.00289C11.1982 4.00289 12.2919 4.4216 13.1518 5.24355L15.5315 2.86383C14.0943 1.52543 12.2163 0.703125 9.98 0.703125C6.73684 0.703125 3.93067 2.56254 2.56555 5.27379L5.33762 7.42359C5.99012 5.46258 7.8193 4.00289 9.98 4.00289Z" fill="#EA4335"/>
</svg>
